<?xml version="1.0" encoding="utf-8"?>
<!-- Generator: Adobe Illustrator 26.0.3, SVG Export Plug-In . SVG Version: 6.00 Build 0)  -->
<svg version="1.1" id="圖層_1" xmlns="http://www.w3.org/2000/svg" xmlns:xlink="http://www.w3.org/1999/xlink" x="0px" y="0px"
	 viewBox="0 0 500 500" style="enable-background:new 0 0 500 500;" xml:space="preserve">
<style type="text/css">
	.st0{fill:url(#SVGID_1_);}
</style>
<linearGradient id="SVGID_1_" gradientUnits="userSpaceOnUse" x1="16.6448" y1="248.4722" x2="483.3552" y2="248.4722">
	<stop  offset="5.618000e-03" style="stop-color:#F0CC7E"/>
	<stop  offset="0.3863" style="stop-color:#DD9A21"/>
	<stop  offset="0.5056" style="stop-color:#D78A03"/>
	<stop  offset="0.5566" style="stop-color:#D98F0E"/>
	<stop  offset="0.6469" style="stop-color:#DD9D2C"/>
	<stop  offset="0.7661" style="stop-color:#E4B35D"/>
	<stop  offset="0.908" style="stop-color:#EDD2A0"/>
	<stop  offset="1" style="stop-color:#F4E7CF"/>
</linearGradient>
<path class="st0" d="M205.96,186.73c-17.71,13.78-32.12,30.87-47.31,47.17c-8.59,9.22-8.75,19.37,0.02,28.24
	c40.15,40.6,80.79,80.71,120.81,121.43c8.67,8.82,13.09,1.89,18.08-3.03c22.55-22.27,43.96-45.78,67.58-66.83
	c13.82-12.31,25.01-28.88,46.39-31.82c25.86-3.56,50.2,6.5,63.56,29.15c12.13,20.57,11.35,50.61-5.15,68.16
	c-30.19,32.12-60.15,64.94-93.86,93.08c-22.13,18.48-46.57,23.16-74.07-5.21c-11.12-11.48-17.72-13.29-29.31-0.92
	c-25.24,26.95-56.83,26.55-83.23,0.27c-46.13-45.94-92.31-91.83-138.06-138.15C0.21,276.43,6.72,205.05,63.32,156.29
	c32.46-27.95,60.72-60.77,90.91-91.36c12.45-12.62,24.5-25.68,37.59-37.6c25.53-23.25,55.85-23.58,79.53,0.87
	c12.45,12.85,19.86,11.51,31.46-0.43c23.27-23.95,53.86-23.95,77.61-0.82c28.49,27.74,56.53,55.97,84.46,84.28
	c23.9,24.22,24.3,62.02,1.39,85.64c-23.35,24.07-60.42,25.11-85.6,1.36c-24.84-23.43-48.8-47.8-73.15-71.75
	c-7.91-7.15-14.88-25.25-26.26-15.3C254.58,134.52,228.63,159.14,205.96,186.73z M59.28,250.06c-0.75,15.46,5.48,30.62,17.9,43.04
	c47.27,47.27,94.93,94.15,141.94,141.67c11.66,11.78,18.74,5.35,27.88-2.9c10.57-9.54,4.74-15.08-2.57-22.32
	c-40.98-40.6-81.63-81.54-122.42-122.33c-29.32-29.32-29.52-48.56-0.77-77.41c41.15-41.29,82.21-82.67,123.46-123.85
	c6.47-6.46,13.59-11.86,3.2-20.87c-8.2-7.11-14.87-18.44-27.36-5.71c-4.27,4.35-10.7,6.67-14.65,11.21
	c-39.92,45.89-85.52,86.19-127.38,130.17C65.96,213.94,59.45,229.52,59.28,250.06z M440.4,340.38c-0.97-5.22-3.57-11.45-10.55-14.44
	c-9.22-3.95-16.66-0.68-23.43,6.1c-26.7,26.78-53.36,53.6-80.5,79.93c-7.47,7.25-8.17,12.73,0.03,19.31
	c7.67,6.16,13.74,18.72,25.81,6.76c28.11-27.87,56.04-55.92,83.94-84.01C438.79,350.92,440.56,346.85,440.4,340.38z M342.93,52.04
	c-9.69,3.63-15.27,11.26-21.75,17.72c-3.46,3.45-2.06,6.63,0.89,9.59c28.33,28.49,56.62,57.02,85.02,85.44
	c8.62,8.63,18.71,11.15,27.8,1.84c10.13-10.38,5.17-20.05-3.82-28.94c-25.57-25.31-50.87-50.9-76.4-76.25
	C351.24,58.04,347.11,55.36,342.93,52.04z"/>
</svg>
